PathFileType	4	(X/Y/Z)	64_2_79_p0_0-789.trc
DataRate	CameraRate	NumFrames	NumMarkers	Units	OrigDataRate	OrigDataStartFrame	OrigNumFrames
60.0	60.0	5	27	m	60.0	395	790
Frame#	Time	RHip			RKnee			RAnkle			RBigToe			RSmallToe			RHeel			LHip			LKnee			LAnkle			LBigToe			LSmallToe			LHeel			Neck			Head			Nose			RShoulder			RElbow			RWrist			RThumb			RIndex			RPinky			LShoulder			LElbow			LWrist			LThumb			LIndex			LPinky			
		X1	Y1	Z1	X2	Y2	Z2	X3	Y3	Z3	X4	Y4	Z4	X5	Y5	Z5	X6	Y6	Z6	X7	Y7	Z7	X8	Y8	Z8	X9	Y9	Z9	X10	Y10	Z10	X11	Y11	Z11	X12	Y12	Z12	X13	Y13	Z13	X14	Y14	Z14	X15	Y15	Z15	X16	Y16	Z16	X17	Y17	Z17	X18	Y18	Z18	X19	Y19	Z19	X20	Y20	Z20	X21	Y21	Z21	X22	Y22	Z22	X23	Y23	Z23	X24	Y24	Z24	X25	Y25	Z25	X26	Y26	Z26	X27	Y27	Z27	
395	6.583333333333333	0.30036259568707513	0.7413885149336484	0.5958234145935063	0.28692532680217026	0.9230348572934662	0.9623481306523223	0.2603184417249345	1.187475975719942	1.3216770052770273	0.28336245064807536	1.0796512229839963	1.4217483477727682	0.34224086156234657	1.0829120249512856	1.392817608522436	0.21606984523555667	1.32131346831176	1.3425679734437752	0.09905650277451965	0.7149717053787472	0.6081166455181536	0.08170430332393924	0.928189219367402	0.9737262158100113	0.07598924757199303	1.1891112781418807	1.350524241088416	0.15061443828624738	0.9968467717376511	1.4246353707787072	0.07259034521423749	1.0551134374896494	1.414449971333051	0.07250168910910323	1.2635324315556031	1.3675810090318548	0.22295342299740076	0.46845707011723503	0.1783941683690326	0.26503776579967664	0.22936996732674544	0.04782745239074766	0.2643864570622399	0.2711849532894591	0.1694026638997147	0.38384785509584457	0.503900768046688	0.24534679082566896	0.4236424275937359	0.6394961873232626	0.4372607015012431	0.4888241014093617	0.3816688942029003	0.5119578404892347	0.4975995714435271	0.2165204261368307	0.5143824875734594	0.5016417986793578	0.21883871226292217	0.5199071114357492	0.4939548656826618	0.2621710019009182	0.5516589437348707	0.08772710975901103	0.4584741509811828	0.24565046432590637	-0.002881037154707864	0.5263584228039979	0.43310097917631435	0.055277074893742374	0.2997446322464706	0.5110654528502003	0.09274545981869534	0.23549547483169236	0.5203493018252154	0.08319416239865608	0.22680695415897978	0.5200725603162536	0.07574948412616023	0.19221524797351613	0.5638618505560056
396	6.6	0.30302980767844495	0.7461685739207897	0.5985683875544136	0.28630412667429933	0.9398394464934354	0.9600112532685564	0.2598109717094225	1.2083099195092246	1.3253832319882428	0.2841954468664542	1.0603635279939347	1.4179267496411552	0.35134062415945655	1.0682443613070802	1.3956215782762502	0.2162603953212493	1.3213494590188435	1.3425196101882229	0.0987735449194135	0.7137128441384593	0.6044283619462817	0.08181152648977146	0.9325457383452832	0.9771535380606976	0.0759560280593865	1.1893994035218443	1.3505005229082816	0.14396840405702932	1.0078828786882017	1.425127473932302	0.06852812912776052	1.050513886491004	1.4108181804871	0.07248555495599515	1.2660099536293674	1.3675443608809297	0.22303137339101817	0.46858820117910865	0.1783050757137283	0.26515080250907974	0.2293118085284462	0.047886583272937266	0.2646791032279327	0.2696988586087223	0.16665410602510342	0.3840707944858539	0.5053648905487486	0.24855475526229642	0.42409792500771515	0.6494986590433026	0.4299852773587053	0.466551466760336	0.40428452125567194	0.5134827289538504	0.4783392378743257	0.23683459888678352	0.5221837231965258	0.49196369527950223	0.23840483842531526	0.5326026542512079	0.4927708934829261	0.2680469929583947	0.5602293298406688	0.08772177499789055	0.4583083695674601	0.2454906968122588	-0.0025270664168966367	0.5372989227403259	0.4213249228308774	0.06019423965901412	0.3175507119992189	0.5082565682816601	0.11712929583219382	0.21137437262861045	0.5316115848058204	0.10702704168576051	0.20547227373646784	0.5342681035527468	0.0807149777198075	0.20289956482289612	0.5788361600660316
397	6.616666666666666	0.30310988703213687	0.7596942496242495	0.5952764241356691	0.2860712141508023	0.9364253675349595	0.9567564343462508	0.2605582407909119	1.1872837511126062	1.321821476626528	0.28418413193080266	1.0608298014163249	1.4180232320591821	0.3513218259659645	1.0682464958648532	1.39548844419643	0.22068723882297595	1.3246080187630427	1.342321695698945	0.11013049018859776	0.7179370244182308	0.60278131547453	0.09105081476286395	0.9151424500644436	0.974403447149584	0.07605763337485191	1.1893494493050731	1.3504653957292962	0.14526573177300492	1.009546818956317	1.4245914933398174	0.06694404303143249	1.0656577675670982	1.4109423280384066	0.07381360743302535	1.2634194974653303	1.3629052194555953	0.22672452820237624	0.4711825408379789	0.17705022621763236	0.26520207984683136	0.22936504012267017	0.047800405553470954	0.26473508578119687	0.26947543009774655	0.16660765305509478	0.3841223388692625	0.505690834987129	0.2486453964446472	0.424287376643521	0.6617029753331545	0.4265024622493202	0.45561661728421887	0.40479070370666015	0.5210598254367976	0.46211955074241484	0.24199112603419162	0.5252512030162136	0.47556399689667556	0.2429774594853785	0.5358582899907375	0.4785305066819507	0.277474725542105	0.5645594140060004	0.08788612115984679	0.45825260348683056	0.24555398049087773	-0.002374679216819903	0.532802159256645	0.4118825993648023	0.07494181069135766	0.31370444872631054	0.5086881046304258	0.1329849881094013	0.2147017874392906	0.5504081250947213	0.12558484600521505	0.19384661209141163	0.5440597529964705	0.07649494697833993	0.20153711539170271	0.5826743144443183
398	6.633333333333334	0.3038525824035014	0.7575139199882761	0.5914681677388073	0.2865086185500374	0.9398060361916358	0.9601288872603998	0.26059227619725095	1.1872349083538438	1.3218897162338028	0.2855142051380576	1.0505772805917564	1.42130626924974	0.35145825540563363	1.0681375807321318	1.3954879889609433	0.22092704166108945	1.3244437271716771	1.3422386926478667	0.11041142196301237	0.7215398902055008	0.6063023009787305	0.09114440193588479	0.9193899126345225	0.9781354494507702	0.07601817490875541	1.189574263029695	1.3504962866937285	0.14539167704083364	1.008938266611367	1.4245294241053996	0.06721707850874643	1.069472916081716	1.4145183566499546	0.07336369128098782	1.266464834569045	1.3629942530323844	0.2268715009267527	0.4712622615395198	0.1769263233105424	0.26813315425707834	0.23021730154689224	0.04344361127046485	0.26477868370526303	0.26933524615429355	0.16649000445819695	0.38719179977972445	0.5067891493390828	0.24423107232006422	0.4244581307083687	0.6604670312103004	0.42264650752902005	0.44885084223639726	0.4129313236531717	0.5157408101367963	0.46144851993476727	0.228674780078951	0.5355245113063344	0.46468399742161814	0.24215534567896022	0.5493200264269803	0.44687663127164834	0.30284496057447013	0.5712403627461295	0.08667368048815499	0.4701491468830646	0.24066743290121803	-0.002076975768333382	0.5262432848096231	0.40144954923368326	0.07359436527347843	0.29900016329762596	0.5136815598753196	0.1468351443263799	0.21022310322330645	0.5542334843896285	0.13369018469199573	0.18049059493885122	0.5641975795582814	0.08251852136870756	0.2079159429038804	0.5858448181101343
399	6.65	0.30798830691441365	0.7486047628560434	0.5972638786862422	0.2864275758334763	0.9400333852426167	0.960209264062649	0.26058349628156574	1.1918181201202707	1.3259073374461168	0.28651906875550803	1.0355599403330924	1.4212112631438538	0.3519280231377786	1.0533563865912574	1.395587965074117	0.21254556811459718	1.3261269793705925	1.3438920082162487	0.11118473016956355	0.7161226237858815	0.5988301409260025	0.09113183866671244	0.9198322835573024	0.9780258412270545	0.07594149463808922	1.1904662266769839	1.3504223825292918	0.14524803610427367	0.9925325697440638	1.424976547663738	0.06714408121132687	1.0656337116106318	1.4109412594175987	0.07024484942878716	1.2881839786828972	1.3679131802487627	0.22716681050884446	0.46981965063328696	0.17380401566725331	0.26503407602658197	0.23803687953098498	0.0393069222674728	0.2646650253212496	0.2694365347749782	0.16643787237855934	0.3874175484863116	0.5053342728895509	0.24065563194326686	0.4181066102174033	0.6590241019725557	0.4202576129615391	0.4419140688511238	0.41131228636281	0.5133653362827277	0.4369857138681094	0.2464779278876865	0.5356904295619831	0.4323933988644286	0.2513073197867671	0.5520184374982494	0.4221599275182056	0.32643406572142314	0.5772866922107401	0.08795460592383175	0.4584149406979368	0.2453565055373872	-0.000698801435482832	0.5108461800796803	0.4000017030426075	0.07158578152203235	0.2859498383703077	0.5181353716456278	0.14774453960946415	0.21734024681348743	0.5646972726857057	0.13420595379836436	0.17600946613342994	0.5774866250814854	0.07520966026681601	0.21960466358418346	0.5997875702116827
